<svg xmlns="http://www.w3.org/2000/svg" viewBox="0 0 520 360" role="img" aria-labelledby="title desc">
  <title id="title">Schedule planning visual</title>
  <desc id="desc">A purple calendar interface with floating course blocks.</desc>
  <defs>
    <linearGradient id="panel" x1="60" x2="460" y1="40" y2="320" gradientUnits="userSpaceOnUse">
      <stop stop-color="#ffffff"/>
      <stop offset="1" stop-color="#f4ecfa"/>
    </linearGradient>
    <linearGradient id="block" x1="0" x2="1">
      <stop stop-color="#7440a8"/>
      <stop offset="1" stop-color="#4b2371"/>
    </linearGradient>
  </defs>
  <rect x="70" y="42" width="380" height="276" rx="22" fill="url(#panel)" stroke="#d9c8e8" stroke-width="3"/>
  <rect x="94" y="72" width="332" height="34" rx="10" fill="#3f1d62"/>
  <g stroke="#e5dced" stroke-width="2">
    <path d="M94 128h332M94 168h332M94 208h332M94 248h332M94 288h332"/>
    <path d="M160 128v160M226 128v160M292 128v160M358 128v160"/>
  </g>
  <g fill="url(#block)">
    <rect x="112" y="140" width="84" height="54" rx="12"/>
    <rect x="244" y="184" width="94" height="72" rx="12"/>
    <rect x="348" y="136" width="58" height="104" rx="12"/>
  </g>
  <g fill="#fff" opacity=".86">
    <rect x="126" y="154" width="38" height="6" rx="3"/>
    <rect x="126" y="168" width="52" height="6" rx="3"/>
    <rect x="260" y="200" width="44" height="6" rx="3"/>
    <rect x="260" y="214" width="60" height="6" rx="3"/>
    <rect x="362" y="154" width="28" height="6" rx="3"/>
    <rect x="362" y="168" width="32" height="6" rx="3"/>
  </g>
  <circle cx="88" cy="78" r="28" fill="#efe5f8"/>
  <path fill="#5b2a86" d="M78 74h20v8H78zM84 68h8v20h-8z"/>
  <circle cx="438" cy="292" r="34" fill="#efe5f8"/>
  <path fill="#5b2a86" d="m426 294 8 8 18-22 7 6-24 30-16-16z"/>
</svg>
